<svg xmlns="http://www.w3.org/2000/svg" xmlns:xlink="http://www.w3.org/1999/xlink" version="1.1" width="256" height="256" viewBox="0 0 256 256" xml:space="preserve">

<defs>
</defs>
<g style="stroke: none; stroke-width: 0; stroke-dasharray: none; stroke-linecap: butt; stroke-linejoin: miter; stroke-miterlimit: 10; fill: none; fill-rule: nonzero; opacity: 1;" transform="translate(1.4065934065934016 1.4065934065934016) scale(2.81 2.81)" >
	<circle cx="45.004000000000005" cy="45.004000000000005" r="39.914" style="stroke: none; stroke-width: 1; stroke-dasharray: none; stroke-linecap: butt; stroke-linejoin: miter; stroke-miterlimit: 10; fill: rgb(255,255,255); fill-rule: nonzero; opacity: 1;" transform="  matrix(1 0 0 1 0 0) "/>
	<path d="M 15.366 -0.701 c -8.874 0 -16.067 7.193 -16.067 16.067 s 7.193 16.067 16.067 16.067 s 16.067 -7.193 16.067 -16.067 S 24.239 -0.701 15.366 -0.701 z M 25.02 11.18 v 2.413 c -1.138 0 -2.243 -0.222 -3.286 -0.662 c -0.671 -0.283 -1.295 -0.648 -1.866 -1.088 l 0.017 7.427 c -0.007 1.672 -0.669 3.244 -1.866 4.427 c -0.975 0.963 -2.209 1.576 -3.548 1.774 c -0.315 0.046 -0.634 0.07 -0.958 0.07 c -1.433 0 -2.793 -0.464 -3.906 -1.32 c -0.209 -0.161 -0.41 -0.336 -0.6 -0.524 c -1.298 -1.283 -1.967 -3.021 -1.854 -4.85 c 0.086 -1.392 0.643 -2.72 1.572 -3.76 c 1.229 -1.377 2.949 -2.142 4.788 -2.142 c 0.323 0 0.644 0.024 0.958 0.071 v 0.892 v 2.482 c -0.298 -0.098 -0.617 -0.152 -0.948 -0.152 c -1.68 0 -3.039 1.371 -3.014 3.052 c 0.016 1.076 0.603 2.016 1.47 2.534 c 0.407 0.244 0.876 0.395 1.376 0.422 c 0.392 0.021 0.768 -0.033 1.116 -0.148 c 1.2 -0.397 2.066 -1.524 2.066 -2.853 l 0.004 -4.974 V 5.19 h 3.323 c 0.003 0.329 0.037 0.651 0.099 0.962 c 0.251 1.26 0.961 2.353 1.949 3.098 c 0.862 0.65 1.935 1.035 3.098 1.035 c 0.001 0 0.01 0 0.01 -0.001 L 25.02 11.18 L 25.02 11.18 z" style="stroke: none; stroke-width: 1; stroke-dasharray: none; stroke-linecap: butt; stroke-linejoin: miter; stroke-miterlimit: 10; fill: rgb(25,33,64); fill-rule: nonzero; opacity: 1;" transform=" matrix(2.8008 0 0 2.8008 1.9639999999999986 1.9639999999999702) " stroke-linecap="round" />
</g>
</svg>